<svg width="512" height="512" version="1.1" xmlns="http://www.w3.org/2000/svg" desc="Created with imagetracer.js version 1.2.6" ><path fill="rgb(0,0,0)" stroke="rgb(0,0,0)" stroke-width="1" opacity="0" d="M 0 0 L 442 0.5 Q 432.9 1.9 427.5 7 L 170 264.5 L 160 293.5 L 152 325.5 L 146 343.5 L 145 351.5 L 150 362 L 156.5 366 L 164.5 367 L 238.5 346 L 247.5 342 L 505 84.5 Q 510.1 79.1 511.5 70 L 512 512 L 417 511.5 Q 424.1 510.1 427 504.5 L 430 497.5 L 430 253.5 Q 427.9 245.2 421.5 241 Q 417.2 237.3 407.5 239 L 398 246.5 L 395 253.5 L 395 478 L 34 478 L 34 117 L 258.5 117 Q 266.9 114.9 271 108.5 Q 274.5 104.5 273 95.5 Q 271.2 88.3 265.5 85 L 258.5 82 L 14.5 82 Q 6.1 84.2 2 90.5 L 0.5 95 L 0 0 Z " /><path fill="rgb(0,0,0)" stroke="rgb(0,0,0)" stroke-width="1" opacity="0" d="M 456.5 0 L 512 0 L 512 55.5 L 511 55.5 Q 509.9 46.6 505 41.5 L 470.5 7 Q 465.4 2.1 456.5 1 L 456.5 0 Z " /><path fill="rgb(0,0,0)" stroke="rgb(0,0,0)" stroke-width="1" opacity="0" d="M 448.5 35 L 477 62.5 L 453.5 87 L 425 58.5 L 448.5 35 Z " /><path fill="rgb(0,0,0)" stroke="rgb(0,0,0)" stroke-width="1" opacity="0" d="M 400.5 83 L 429 110.5 L 227.5 313 L 188 324 L 199 284.5 L 400.5 83 Z " /><path fill="rgb(0,0,0)" stroke="rgb(0,0,0)" stroke-width="1" opacity="0" d="M 0.5 500 L 6.5 509 L 12 511.5 L 0 512 L 0.5 500 Z " /><path fill="rgb(0,0,0)" stroke="rgb(0,0,0)" stroke-width="1" opacity="0.596078431372549" d="M 442.5 0 L 445 0.5 L 442.5 1 L 442.5 0 Z " /><path fill="rgb(0,0,0)" stroke="rgb(0,0,0)" stroke-width="1" opacity="0.596078431372549" d="M 453.5 0 L 456 0.5 L 453.5 1 L 453.5 0 Z " /><path fill="rgb(0,0,0)" stroke="rgb(0,0,0)" stroke-width="1" opacity="0.596078431372549" d="M 433.5 3 L 435 3.5 L 432.5 5 L 433.5 3 Z " /><path fill="rgb(0,0,0)" stroke="rgb(0,0,0)" stroke-width="1" opacity="0.596078431372549" d="M 427.5 7 L 172.5 263 L 427.5 7 Z " /><path fill="rgb(0,0,0)" stroke="rgb(0,0,0)" stroke-width="1" opacity="0.596078431372549" d="M 470.5 7 L 504.5 42 L 470.5 7 Z " /><path fill="rgb(0,0,0)" stroke="rgb(0,0,0)" stroke-width="1" opacity="0.596078431372549" d="M 448.5 34 L 478 62.5 L 454.5 87 L 477 63.5 L 449.5 35 L 425.5 58 L 448.5 34 Z " /><path fill="rgb(0,0,0)" stroke="rgb(0,0,0)" stroke-width="1" opacity="0.596078431372549" d="M 511.5 56 L 512 58.5 L 511 58.5 L 511.5 56 Z " /><path fill="rgb(0,0,0)" stroke="rgb(0,0,0)" stroke-width="1" opacity="0.596078431372549" d="M 511.5 67 L 512 69.5 L 511 69.5 L 511.5 67 Z " /><path fill="rgb(0,0,0)" stroke="rgb(0,0,0)" stroke-width="1" opacity="0.596078431372549" d="M 508.5 77 L 509 78.5 L 507 79.5 L 508.5 77 Z " /><path fill="rgb(0,0,0)" stroke="rgb(0,0,0)" stroke-width="1" opacity="0.596078431372549" d="M 14.5 82 L 259 82.5 L 14.5 83 L 14.5 82 Z " /><path fill="rgb(0,0,0)" stroke="rgb(0,0,0)" stroke-width="1" opacity="0.596078431372549" d="M 400.5 82 L 199.5 284 L 400.5 82 Z " /><path fill="rgb(0,0,0)" stroke="rgb(0,0,0)" stroke-width="1" opacity="0.596078431372549" d="M 504.5 84 L 247.5 342 L 504.5 84 Z " /><path fill="rgb(0,0,0)" stroke="rgb(0,0,0)" stroke-width="1" opacity="0.596078431372549" d="M 3.5 89 L 2.5 91 L 3.5 89 Z " /><path fill="rgb(0,0,0)" stroke="rgb(0,0,0)" stroke-width="1" opacity="0.596078431372549" d="M 269.5 89 L 270.5 91 L 269.5 89 Z " /><path fill="rgb(0,0,0)" stroke="rgb(0,0,0)" stroke-width="1" opacity="0.596078431372549" d="M 272.5 102 L 273 104.5 L 272 104.5 L 272.5 102 Z " /><path fill="rgb(0,0,0)" stroke="rgb(0,0,0)" stroke-width="1" opacity="0.596078431372549" d="M 270.5 108 L 269.5 110 L 270.5 108 Z " /><path fill="rgb(0,0,0)" stroke="rgb(0,0,0)" stroke-width="1" opacity="0.596078431372549" d="M 429.5 111 L 228.5 313 L 429.5 111 Z " /><path fill="rgb(0,0,0)" stroke="rgb(0,0,0)" stroke-width="1" opacity="0.596078431372549" d="M 34.5 116 L 259 116.5 L 34.5 117 L 34.5 116 Z " /><path fill="rgb(0,0,0)" stroke="rgb(0,0,0)" stroke-width="1" opacity="0.596078431372549" d="M 407.5 239 L 410 239.5 L 407.5 240 L 407.5 239 Z " /><path fill="rgb(0,0,0)" stroke="rgb(0,0,0)" stroke-width="1" opacity="0.596078431372549" d="M 415.5 239 L 418 239.5 L 415.5 240 L 415.5 239 Z " /><path fill="rgb(0,0,0)" stroke="rgb(0,0,0)" stroke-width="1" opacity="0.596078431372549" d="M 421.5 241 L 422.5 243 L 421.5 241 Z " /><path fill="rgb(0,0,0)" stroke="rgb(0,0,0)" stroke-width="1" opacity="0.596078431372549" d="M 395.5 253 L 396 477.5 L 395 477.5 L 395.5 253 Z " /><path fill="rgb(0,0,0)" stroke="rgb(0,0,0)" stroke-width="1" opacity="0.596078431372549" d="M 429.5 253 L 430 497.5 L 429 497.5 L 429.5 253 Z " /><path fill="rgb(0,0,0)" stroke="rgb(0,0,0)" stroke-width="1" opacity="0.596078431372549" d="M 145.5 347 L 146 351.5 L 145 351.5 L 145.5 347 Z " /><path fill="rgb(0,0,0)" stroke="rgb(0,0,0)" stroke-width="1" opacity="0.596078431372549" d="M 147.5 357 L 148.5 359 L 147.5 357 Z " /><path fill="rgb(0,0,0)" stroke="rgb(0,0,0)" stroke-width="1" opacity="0.596078431372549" d="M 153.5 363 L 154.5 365 L 153.5 363 Z " /><path fill="rgb(0,0,0)" stroke="rgb(0,0,0)" stroke-width="1" opacity="0.596078431372549" d="M 160.5 366 L 165 366.5 L 160.5 367 L 160.5 366 Z " /><path fill="rgb(0,0,0)" stroke="rgb(0,0,0)" stroke-width="1" opacity="0.596078431372549" d="M 3.5 505 L 6.5 509 L 3.5 505 Z " /><path fill="rgb(0,0,0)" stroke="rgb(0,0,0)" stroke-width="1" opacity="0.596078431372549" d="M 422.5 508 L 421.5 510 L 422.5 508 Z " /><path fill="rgb(0,0,0)" stroke="rgb(0,0,0)" stroke-width="1" opacity="0.596078431372549" d="M 12.5 511 L 15 511.5 L 12.5 512 L 12.5 511 Z " /><path fill="rgb(0,0,0)" stroke="rgb(0,0,0)" stroke-width="1" opacity="1" d="M 441.5 1 L 456.5 1 L 464.5 4 L 471.5 9 L 503 40.5 Q 508.7 46.3 511 55.5 L 511 70.5 L 504 84.5 L 247.5 341 L 235.5 346 L 169.5 365 L 159.5 366 Q 151.6 363.9 148 357.5 Q 145.1 353.9 146 346.5 L 150 335.5 L 162 289.5 L 171 264.5 L 427.5 8 L 441.5 1 Z M 449 34 L 424 59 L 454 88 L 478 63 L 449 34 Z M 401 82 L 198 285 L 187 325 L 228 314 L 430 111 L 401 82 Z " /><path fill="rgb(0,0,0)" stroke="rgb(0,0,0)" stroke-width="1" opacity="1" d="M 13.5 83 L 259.5 83 Q 266.7 84.8 270 90.5 L 273 99.5 L 270 108.5 L 264.5 114 L 259.5 116 L 34 116 L 34 478 L 396 478 L 396 252.5 Q 397.8 245.3 403.5 242 L 413.5 239 Q 422.8 240.8 427 247.5 L 429 252.5 L 429 498.5 Q 426.8 505.3 421.5 509 L 412.5 512 L 17.5 512 L 9.5 510 L 5 507 L 1 499.5 L 1 94.5 L 7.5 86 L 13.5 83 Z " /><path fill="rgb(0,0,0)" stroke="rgb(0,0,0)" stroke-width="1" opacity="0.9725490196078431" d="M 445.5 0 L 448 0.5 L 445.5 1 L 445.5 0 Z " /><path fill="rgb(0,0,0)" stroke="rgb(0,0,0)" stroke-width="1" opacity="0.9725490196078431" d="M 449.5 0 L 453 0.5 L 449.5 1 L 449.5 0 Z " /><path fill="rgb(0,0,0)" stroke="rgb(0,0,0)" stroke-width="1" opacity="0.9725490196078431" d="M 429.5 6 L 428.5 8 L 429.5 6 Z " /><path fill="rgb(0,0,0)" stroke="rgb(0,0,0)" stroke-width="1" opacity="0.9725490196078431" d="M 468.5 6 L 469.5 8 L 468.5 6 Z " /><path fill="rgb(0,0,0)" stroke="rgb(0,0,0)" stroke-width="1" opacity="0.9725490196078431" d="M 504.5 42 L 505.5 44 L 504.5 42 Z " /><path fill="rgb(0,0,0)" stroke="rgb(0,0,0)" stroke-width="1" opacity="0.9725490196078431" d="M 424.5 58 L 453.5 88 L 424.5 58 Z " /><path fill="rgb(0,0,0)" stroke="rgb(0,0,0)" stroke-width="1" opacity="0.9725490196078431" d="M 511.5 59 L 512 66.5 L 511 66.5 L 511.5 59 Z " /><path fill="rgb(0,0,0)" stroke="rgb(0,0,0)" stroke-width="1" opacity="0.9725490196078431" d="M 401.5 82 L 429.5 111 L 401.5 82 Z " /><path fill="rgb(0,0,0)" stroke="rgb(0,0,0)" stroke-width="1" opacity="0.9725490196078431" d="M 505.5 82 L 504.5 84 L 505.5 82 Z " /><path fill="rgb(0,0,0)" stroke="rgb(0,0,0)" stroke-width="1" opacity="0.9725490196078431" d="M 6.5 86 L 4.5 89 L 6.5 86 Z " /><path fill="rgb(0,0,0)" stroke="rgb(0,0,0)" stroke-width="1" opacity="0.9725490196078431" d="M 266.5 86 L 268.5 89 L 266.5 86 Z " /><path fill="rgb(0,0,0)" stroke="rgb(0,0,0)" stroke-width="1" opacity="0.9725490196078431" d="M 268.5 110 L 266.5 113 L 268.5 110 Z " /><path fill="rgb(0,0,0)" stroke="rgb(0,0,0)" stroke-width="1" opacity="0.9725490196078431" d="M 402.5 242 L 399.5 246 L 402.5 242 Z " /><path fill="rgb(0,0,0)" stroke="rgb(0,0,0)" stroke-width="1" opacity="0.9725490196078431" d="M 423.5 243 L 425.5 246 L 423.5 243 Z " /><path fill="rgb(0,0,0)" stroke="rgb(0,0,0)" stroke-width="1" opacity="0.9725490196078431" d="M 246.5 341 L 245.5 343 L 246.5 341 Z " /><path fill="rgb(0,0,0)" stroke="rgb(0,0,0)" stroke-width="1" opacity="0.9725490196078431" d="M 149.5 359 L 152.5 363 L 149.5 359 Z " /><path fill="rgb(0,0,0)" stroke="rgb(0,0,0)" stroke-width="1" opacity="0.9725490196078431" d="M 0.5 495 L 1 497.5 L 0 497.5 L 0.5 495 Z " /><path fill="rgb(0,0,0)" stroke="rgb(0,0,0)" stroke-width="1" opacity="0.9725490196078431" d="M 425.5 505 L 423.5 508 L 425.5 505 Z " /><path fill="rgb(0,0,0)" stroke="rgb(0,0,0)" stroke-width="1" opacity="0.996078431372549" d="M 0.5 99 L 1 494.5 L 0 494.5 L 0.5 99 Z " /></svg>